<svg width="700" height="599" viewBox="0 0 700 599" fill="none" xmlns="http://www.w3.org/2000/svg">
<g clip-path="url(#clip0_43_174)">
<rect width="700" height="599" fill="white"/>
<rect x="0.5" y="0.5" width="99" height="99" fill="#2E2E2E" stroke="#212121"/>
<rect x="200.5" y="0.5" width="99" height="99" fill="#2E2E2E" stroke="#212121"/>
<rect x="400.5" y="0.5" width="99" height="99" fill="#2E2E2E" stroke="#212121"/>
<rect x="0.5" y="100.5" width="99" height="99" fill="#2E2E2E" stroke="#212121"/>
<rect x="200.5" y="100.5" width="99" height="99" fill="#2E2E2E" stroke="#212121"/>
<rect x="400.5" y="100.5" width="99" height="99" fill="#2E2E2E" stroke="#212121"/>
<rect x="0.5" y="200.5" width="99" height="99" fill="#2E2E2E" stroke="#212121"/>
<rect x="200.5" y="200.5" width="99" height="99" fill="#2E2E2E" stroke="#212121"/>
<rect x="400.5" y="200.5" width="99" height="99" fill="#2E2E2E" stroke="#212121"/>
<rect x="0.5" y="300.5" width="99" height="99" fill="#2E2E2E" stroke="#212121"/>
<rect x="200.5" y="300.5" width="99" height="99" fill="#2E2E2E" stroke="#212121"/>
<rect x="200.5" y="400.5" width="99" height="99" fill="#2E2E2E" stroke="#212121"/>
<rect x="400.5" y="300.5" width="99" height="99" fill="#2E2E2E" stroke="#212121"/>
<rect x="400.5" y="400.5" width="99" height="99" fill="#2E2E2E" stroke="#212121"/>
<rect x="0.5" y="400.5" width="99" height="99" fill="#2E2E2E" stroke="#212121"/>
<rect x="100.5" y="0.5" width="99" height="99" fill="#2E2E2E" stroke="#212121"/>
<rect x="300.5" y="0.5" width="99" height="99" fill="#2E2E2E" stroke="#212121"/>
<rect x="500.5" y="0.5" width="99" height="99" fill="#2E2E2E" stroke="#212121"/>
<rect x="600.5" y="0.5" width="99" height="99" fill="#2E2E2E" stroke="#212121"/>
<rect x="100.5" y="100.5" width="99" height="99" fill="#2E2E2E" stroke="#212121"/>
<rect x="300.5" y="100.5" width="99" height="99" fill="#B6FFCB" stroke="#212121"/>
<rect x="500.5" y="100.5" width="99" height="99" fill="#FDF2A0" stroke="#212121"/>
<rect x="600.5" y="100.5" width="99" height="99" fill="#FDF2A0" stroke="#212121"/>
<rect x="100.5" y="200.5" width="99" height="99" fill="#2E2E2E" stroke="#212121"/>
<rect x="300.5" y="200.5" width="99" height="99" fill="#2E2E2E" stroke="#212121"/>
<rect x="500.5" y="200.5" width="99" height="99" fill="#FDF2A0" stroke="#212121"/>
<rect x="600.5" y="200.5" width="99" height="99" fill="#FDF2A0" stroke="#212121"/>
<rect x="100.5" y="300.5" width="99" height="99" fill="#2E2E2E" stroke="#212121"/>
<rect x="300.5" y="300.5" width="99" height="99" fill="#2E2E2E" stroke="#212121"/>
<rect x="300.5" y="400.5" width="99" height="99" fill="#2E2E2E" stroke="#212121"/>
<rect x="500.5" y="300.5" width="99" height="99" fill="#FDF2A0" stroke="#212121"/>
<rect x="600.5" y="300.5" width="99" height="99" fill="#FDF2A0" stroke="#212121"/>
<rect x="500.5" y="400.5" width="99" height="99" fill="#FDF2A0" stroke="#212121"/>
<rect x="600.5" y="400.5" width="99" height="99" fill="#FDF2A0" stroke="#212121"/>
<rect x="100.5" y="400.5" width="99" height="99" fill="#2E2E2E" stroke="#212121"/>
<path d="M43.68 43.16V57H41.86V46.68L37.26 57H35.98L31.36 46.66V57H29.54V43.16H31.5L36.62 54.6L41.74 43.16H43.68ZM51.5466 57.18C50.5199 57.18 49.5866 56.9467 48.7466 56.48C47.9199 56.0133 47.2666 55.3533 46.7866 54.5C46.3199 53.6333 46.0866 52.6333 46.0866 51.5C46.0866 50.38 46.3266 49.3933 46.8066 48.54C47.2999 47.6733 47.9666 47.0133 48.8066 46.56C49.6466 46.0933 50.5866 45.86 51.6266 45.86C52.6666 45.86 53.6066 46.0933 54.4466 46.56C55.2866 47.0133 55.9466 47.6667 56.4266 48.52C56.9199 49.3733 57.1666 50.3667 57.1666 51.5C57.1666 52.6333 56.9132 53.6333 56.4066 54.5C55.9132 55.3533 55.2399 56.0133 54.3866 56.48C53.5332 56.9467 52.5866 57.18 51.5466 57.18ZM51.5466 55.58C52.1999 55.58 52.8132 55.4267 53.3866 55.12C53.9599 54.8133 54.4199 54.3533 54.7666 53.74C55.1266 53.1267 55.3066 52.38 55.3066 51.5C55.3066 50.62 55.1332 49.8733 54.7866 49.26C54.4399 48.6467 53.9866 48.1933 53.4266 47.9C52.8666 47.5933 52.2599 47.44 51.6066 47.44C50.9399 47.44 50.3266 47.5933 49.7666 47.9C49.2199 48.1933 48.7799 48.6467 48.4466 49.26C48.1132 49.8733 47.9466 50.62 47.9466 51.5C47.9466 52.3933 48.1066 53.1467 48.4266 53.76C48.7599 54.3733 49.1999 54.8333 49.7466 55.14C50.2932 55.4333 50.8932 55.58 51.5466 55.58ZM64.8995 45.84C66.2329 45.84 67.3129 46.2467 68.1395 47.06C68.9662 47.86 69.3795 49.02 69.3795 50.54V57H67.5795V50.8C67.5795 49.7067 67.3062 48.8733 66.7595 48.3C66.2129 47.7133 65.4662 47.42 64.5195 47.42C63.5595 47.42 62.7929 47.72 62.2195 48.32C61.6595 48.92 61.3795 49.7933 61.3795 50.94V57H59.5595V46.04H61.3795V47.6C61.7395 47.04 62.2262 46.6067 62.8395 46.3C63.4662 45.9933 64.1529 45.84 64.8995 45.84Z" fill="#F49C06"/>
<path d="M138.12 43.06V44.54H134.32V57H132.5V44.54H128.68V43.06H138.12ZM150.08 46.04V57H148.26V55.38C147.914 55.94 147.427 56.38 146.8 56.7C146.187 57.0067 145.507 57.16 144.76 57.16C143.907 57.16 143.14 56.9867 142.46 56.64C141.78 56.28 141.24 55.7467 140.84 55.04C140.454 54.3333 140.26 53.4733 140.26 52.46V46.04H142.06V52.22C142.06 53.3 142.334 54.1333 142.88 54.72C143.427 55.2933 144.174 55.58 145.12 55.58C146.094 55.58 146.86 55.28 147.42 54.68C147.98 54.08 148.26 53.2067 148.26 52.06V46.04H150.08ZM163.153 51.1C163.153 51.4467 163.133 51.8133 163.093 52.2H154.333C154.4 53.28 154.767 54.1267 155.433 54.74C156.113 55.34 156.933 55.64 157.893 55.64C158.68 55.64 159.333 55.46 159.853 55.1C160.387 54.7267 160.76 54.2333 160.973 53.62H162.933C162.64 54.6733 162.053 55.5333 161.173 56.2C160.293 56.8533 159.2 57.18 157.893 57.18C156.853 57.18 155.92 56.9467 155.093 56.48C154.28 56.0133 153.64 55.3533 153.173 54.5C152.707 53.6333 152.473 52.6333 152.473 51.5C152.473 50.3667 152.7 49.3733 153.153 48.52C153.607 47.6667 154.24 47.0133 155.053 46.56C155.88 46.0933 156.827 45.86 157.893 45.86C158.933 45.86 159.853 46.0867 160.653 46.54C161.453 46.9933 162.067 47.62 162.493 48.42C162.933 49.2067 163.153 50.1 163.153 51.1ZM161.273 50.72C161.273 50.0267 161.12 49.4333 160.813 48.94C160.507 48.4333 160.087 48.0533 159.553 47.8C159.033 47.5333 158.453 47.4 157.813 47.4C156.893 47.4 156.107 47.6933 155.453 48.28C154.813 48.8667 154.447 49.68 154.353 50.72H161.273Z" fill="#F49C06"/>
<path d="M247.06 43.06L243.02 57H240.98L237.74 45.78L234.38 57L232.36 57.02L228.46 43.06H230.4L233.44 54.88L236.8 43.06H238.84L242.04 54.84L245.1 43.06H247.06ZM259.052 51.1C259.052 51.4467 259.032 51.8133 258.992 52.2H250.232C250.298 53.28 250.665 54.1267 251.332 54.74C252.012 55.34 252.832 55.64 253.792 55.64C254.578 55.64 255.232 55.46 255.752 55.1C256.285 54.7267 256.658 54.2333 256.872 53.62H258.832C258.538 54.6733 257.952 55.5333 257.072 56.2C256.192 56.8533 255.098 57.18 253.792 57.18C252.752 57.18 251.818 56.9467 250.992 56.48C250.178 56.0133 249.538 55.3533 249.072 54.5C248.605 53.6333 248.372 52.6333 248.372 51.5C248.372 50.3667 248.598 49.3733 249.052 48.52C249.505 47.6667 250.138 47.0133 250.952 46.56C251.778 46.0933 252.725 45.86 253.792 45.86C254.832 45.86 255.752 46.0867 256.552 46.54C257.352 46.9933 257.965 47.62 258.392 48.42C258.832 49.2067 259.052 50.1 259.052 51.1ZM257.172 50.72C257.172 50.0267 257.018 49.4333 256.712 48.94C256.405 48.4333 255.985 48.0533 255.452 47.8C254.932 47.5333 254.352 47.4 253.712 47.4C252.792 47.4 252.005 47.6933 251.352 48.28C250.712 48.8667 250.345 49.68 250.252 50.72H257.172ZM260.774 51.48C260.774 50.36 261.001 49.38 261.454 48.54C261.907 47.6867 262.527 47.0267 263.314 46.56C264.114 46.0933 265.007 45.86 265.994 45.86C266.847 45.86 267.641 46.06 268.374 46.46C269.107 46.8467 269.667 47.36 270.054 48V42.2H271.894V57H270.054V54.94C269.694 55.5933 269.161 56.1333 268.454 56.56C267.747 56.9733 266.921 57.18 265.974 57.18C265.001 57.18 264.114 56.94 263.314 56.46C262.527 55.98 261.907 55.3067 261.454 54.44C261.001 53.5733 260.774 52.5867 260.774 51.48ZM270.054 51.5C270.054 50.6733 269.887 49.9533 269.554 49.34C269.221 48.7267 268.767 48.26 268.194 47.94C267.634 47.6067 267.014 47.44 266.334 47.44C265.654 47.44 265.034 47.6 264.474 47.92C263.914 48.24 263.467 48.7067 263.134 49.32C262.801 49.9333 262.634 50.6533 262.634 51.48C262.634 52.32 262.801 53.0533 263.134 53.68C263.467 54.2933 263.914 54.7667 264.474 55.1C265.034 55.42 265.654 55.58 266.334 55.58C267.014 55.58 267.634 55.42 268.194 55.1C268.767 54.7667 269.221 54.2933 269.554 53.68C269.887 53.0533 270.054 52.3267 270.054 51.5Z" fill="#F49C06"/>
<path d="M338.12 43.06V44.54H334.32V57H332.5V44.54H328.68V43.06H338.12ZM345.8 45.84C346.627 45.84 347.374 46.02 348.04 46.38C348.707 46.7267 349.227 47.2533 349.6 47.96C349.987 48.6667 350.18 49.5267 350.18 50.54V57H348.38V50.8C348.38 49.7067 348.107 48.8733 347.56 48.3C347.014 47.7133 346.267 47.42 345.32 47.42C344.36 47.42 343.594 47.72 343.02 48.32C342.46 48.92 342.18 49.7933 342.18 50.94V57H340.36V42.2H342.18V47.6C342.54 47.04 343.034 46.6067 343.66 46.3C344.3 45.9933 345.014 45.84 345.8 45.84ZM362.873 46.04V57H361.053V55.38C360.707 55.94 360.22 56.38 359.593 56.7C358.98 57.0067 358.3 57.16 357.553 57.16C356.7 57.16 355.933 56.9867 355.253 56.64C354.573 56.28 354.033 55.7467 353.633 55.04C353.247 54.3333 353.053 53.4733 353.053 52.46V46.04H354.853V52.22C354.853 53.3 355.127 54.1333 355.673 54.72C356.22 55.2933 356.967 55.58 357.913 55.58C358.887 55.58 359.653 55.28 360.213 54.68C360.773 54.08 361.053 53.2067 361.053 52.06V46.04H362.873Z" fill="#F49C06"/>
<path d="M437.42 43.06V44.54H431.36V49.24H436.28V50.72H431.36V57H429.54V43.06H437.42ZM441.438 47.82C441.758 47.1933 442.211 46.7067 442.798 46.36C443.398 46.0133 444.125 45.84 444.978 45.84V47.72H444.498C442.458 47.72 441.438 48.8267 441.438 51.04V57H439.618V46.04H441.438V47.82ZM448.019 44.26C447.672 44.26 447.379 44.14 447.139 43.9C446.899 43.66 446.779 43.3667 446.779 43.02C446.779 42.6733 446.899 42.38 447.139 42.14C447.379 41.9 447.672 41.78 448.019 41.78C448.352 41.78 448.632 41.9 448.859 42.14C449.099 42.38 449.219 42.6733 449.219 43.02C449.219 43.3667 449.099 43.66 448.859 43.9C448.632 44.14 448.352 44.26 448.019 44.26ZM448.899 46.04V57H447.079V46.04H448.899Z" fill="#F49C06"/>
<path d="M533.96 57.14C533.04 57.14 532.213 56.98 531.48 56.66C530.76 56.3267 530.193 55.8733 529.78 55.3C529.367 54.7133 529.153 54.04 529.14 53.28H531.08C531.147 53.9333 531.413 54.4867 531.88 54.94C532.36 55.38 533.053 55.6 533.96 55.6C534.827 55.6 535.507 55.3867 536 54.96C536.507 54.52 536.76 53.96 536.76 53.28C536.76 52.7467 536.613 52.3133 536.32 51.98C536.027 51.6467 535.66 51.3933 535.22 51.22C534.78 51.0467 534.187 50.86 533.44 50.66C532.52 50.42 531.78 50.18 531.22 49.94C530.673 49.7 530.2 49.3267 529.8 48.82C529.413 48.3 529.22 47.6067 529.22 46.74C529.22 45.98 529.413 45.3067 529.8 44.72C530.187 44.1333 530.727 43.68 531.42 43.36C532.127 43.04 532.933 42.88 533.84 42.88C535.147 42.88 536.213 43.2067 537.04 43.86C537.88 44.5133 538.353 45.38 538.46 46.46H536.46C536.393 45.9267 536.113 45.46 535.62 45.06C535.127 44.6467 534.473 44.44 533.66 44.44C532.9 44.44 532.28 44.64 531.8 45.04C531.32 45.4267 531.08 45.9733 531.08 46.68C531.08 47.1867 531.22 47.6 531.5 47.92C531.793 48.24 532.147 48.4867 532.56 48.66C532.987 48.82 533.58 49.0067 534.34 49.22C535.26 49.4733 536 49.7267 536.56 49.98C537.12 50.22 537.6 50.6 538 51.12C538.4 51.6267 538.6 52.32 538.6 53.2C538.6 53.88 538.42 54.52 538.06 55.12C537.7 55.72 537.167 56.2067 536.46 56.58C535.753 56.9533 534.92 57.14 533.96 57.14ZM540.598 51.48C540.598 50.36 540.825 49.38 541.278 48.54C541.732 47.6867 542.352 47.0267 543.138 46.56C543.938 46.0933 544.825 45.86 545.798 45.86C546.758 45.86 547.592 46.0667 548.298 46.48C549.005 46.8933 549.532 47.4133 549.878 48.04V46.04H551.718V57H549.878V54.96C549.518 55.6 548.978 56.1333 548.258 56.56C547.552 56.9733 546.725 57.18 545.778 57.18C544.805 57.18 543.925 56.94 543.138 56.46C542.352 55.98 541.732 55.3067 541.278 54.44C540.825 53.5733 540.598 52.5867 540.598 51.48ZM549.878 51.5C549.878 50.6733 549.712 49.9533 549.378 49.34C549.045 48.7267 548.592 48.26 548.018 47.94C547.458 47.6067 546.838 47.44 546.158 47.44C545.478 47.44 544.858 47.6 544.298 47.92C543.738 48.24 543.292 48.7067 542.958 49.32C542.625 49.9333 542.458 50.6533 542.458 51.48C542.458 52.32 542.625 53.0533 542.958 53.68C543.292 54.2933 543.738 54.7667 544.298 55.1C544.858 55.42 545.478 55.58 546.158 55.58C546.838 55.58 547.458 55.42 548.018 55.1C548.592 54.7667 549.045 54.2933 549.378 53.68C549.712 53.0533 549.878 52.3267 549.878 51.5ZM557.014 47.54V54C557.014 54.5333 557.127 54.9133 557.354 55.14C557.581 55.3533 557.974 55.46 558.534 55.46H559.874V57H558.234C557.221 57 556.461 56.7667 555.954 56.3C555.447 55.8333 555.194 55.0667 555.194 54V47.54H553.774V46.04H555.194V43.28H557.014V46.04H559.874V47.54H557.014Z" fill="#F49C06"/>
<path d="M634.96 57.14C634.04 57.14 633.213 56.98 632.48 56.66C631.76 56.3267 631.193 55.8733 630.78 55.3C630.367 54.7133 630.153 54.04 630.14 53.28H632.08C632.147 53.9333 632.413 54.4867 632.88 54.94C633.36 55.38 634.053 55.6 634.96 55.6C635.827 55.6 636.507 55.3867 637 54.96C637.507 54.52 637.76 53.96 637.76 53.28C637.76 52.7467 637.613 52.3133 637.32 51.98C637.027 51.6467 636.66 51.3933 636.22 51.22C635.78 51.0467 635.187 50.86 634.44 50.66C633.52 50.42 632.78 50.18 632.22 49.94C631.673 49.7 631.2 49.3267 630.8 48.82C630.413 48.3 630.22 47.6067 630.22 46.74C630.22 45.98 630.413 45.3067 630.8 44.72C631.187 44.1333 631.727 43.68 632.42 43.36C633.127 43.04 633.933 42.88 634.84 42.88C636.147 42.88 637.213 43.2067 638.04 43.86C638.88 44.5133 639.353 45.38 639.46 46.46H637.46C637.393 45.9267 637.113 45.46 636.62 45.06C636.127 44.6467 635.473 44.44 634.66 44.44C633.9 44.44 633.28 44.64 632.8 45.04C632.32 45.4267 632.08 45.9733 632.08 46.68C632.08 47.1867 632.22 47.6 632.5 47.92C632.793 48.24 633.147 48.4867 633.56 48.66C633.987 48.82 634.58 49.0067 635.34 49.22C636.26 49.4733 637 49.7267 637.56 49.98C638.12 50.22 638.6 50.6 639 51.12C639.4 51.6267 639.6 52.32 639.6 53.2C639.6 53.88 639.42 54.52 639.06 55.12C638.7 55.72 638.167 56.2067 637.46 56.58C636.753 56.9533 635.92 57.14 634.96 57.14ZM651.998 46.04V57H650.178V55.38C649.832 55.94 649.345 56.38 648.718 56.7C648.105 57.0067 647.425 57.16 646.678 57.16C645.825 57.16 645.058 56.9867 644.378 56.64C643.698 56.28 643.158 55.7467 642.758 55.04C642.372 54.3333 642.178 53.4733 642.178 52.46V46.04H643.978V52.22C643.978 53.3 644.252 54.1333 644.798 54.72C645.345 55.2933 646.092 55.58 647.038 55.58C648.012 55.58 648.778 55.28 649.338 54.68C649.898 54.08 650.178 53.2067 650.178 52.06V46.04H651.998ZM660.411 45.84C661.745 45.84 662.825 46.2467 663.651 47.06C664.478 47.86 664.891 49.02 664.891 50.54V57H663.091V50.8C663.091 49.7067 662.818 48.8733 662.271 48.3C661.725 47.7133 660.978 47.42 660.031 47.42C659.071 47.42 658.305 47.72 657.731 48.32C657.171 48.92 656.891 49.7933 656.891 50.94V57H655.071V46.04H656.891V47.6C657.251 47.04 657.738 46.6067 658.351 46.3C658.978 45.9933 659.665 45.84 660.411 45.84Z" fill="#F49C06"/>
<path d="M337.86 148.93C337.86 145.49 338.42 142.81 339.54 140.89C340.66 138.95 342.62 137.98 345.42 137.98C348.2 137.98 350.15 138.95 351.27 140.89C352.39 142.81 352.95 145.49 352.95 148.93C352.95 152.43 352.39 155.15 351.27 157.09C350.15 159.03 348.2 160 345.42 160C342.62 160 340.66 159.03 339.54 157.09C338.42 155.15 337.86 152.43 337.86 148.93ZM350.25 148.93C350.25 147.19 350.13 145.72 349.89 144.52C349.67 143.3 349.2 142.32 348.48 141.58C347.78 140.84 346.76 140.47 345.42 140.47C344.06 140.47 343.02 140.84 342.3 141.58C341.6 142.32 341.13 143.3 340.89 144.52C340.67 145.72 340.56 147.19 340.56 148.93C340.56 150.73 340.67 152.24 340.89 153.46C341.13 154.68 341.6 155.66 342.3 156.4C343.02 157.14 344.06 157.51 345.42 157.51C346.76 157.51 347.78 157.14 348.48 156.4C349.2 155.66 349.67 154.68 349.89 153.46C350.13 152.24 350.25 150.73 350.25 148.93ZM355.978 140.8V138.31H361.618V160H358.858V140.8H355.978Z" fill="black"/>
<rect x="0.5" y="499.5" width="99" height="99" fill="#2E2E2E" stroke="#212121"/>
<rect x="200.5" y="499.5" width="99" height="99" fill="#2E2E2E" stroke="#212121"/>
<rect x="100.5" y="499.5" width="99" height="99" fill="#2E2E2E" stroke="#212121"/>
<rect x="300.5" y="499.5" width="99" height="99" fill="#2E2E2E" stroke="#212121"/>
<path d="M337.53 556.81C340.07 554.77 342.06 553.1 343.5 551.8C344.94 550.48 346.15 549.11 347.13 547.69C348.13 546.25 348.63 544.84 348.63 543.46C348.63 542.16 348.31 541.14 347.67 540.4C347.05 539.64 346.04 539.26 344.64 539.26C343.28 539.26 342.22 539.69 341.46 540.55C340.72 541.39 340.32 542.52 340.26 543.94H337.62C337.7 541.7 338.38 539.97 339.66 538.75C340.94 537.53 342.59 536.92 344.61 536.92C346.67 536.92 348.3 537.49 349.5 538.63C350.72 539.77 351.33 541.34 351.33 543.34C351.33 545 350.83 546.62 349.83 548.2C348.85 549.76 347.73 551.14 346.47 552.34C345.21 553.52 343.6 554.9 341.64 556.48H351.96V558.76H337.53V556.81ZM358.626 553.18C358.826 554.32 359.286 555.2 360.006 555.82C360.746 556.44 361.736 556.75 362.976 556.75C364.636 556.75 365.856 556.1 366.636 554.8C367.436 553.5 367.816 551.31 367.776 548.23C367.356 549.13 366.656 549.84 365.676 550.36C364.696 550.86 363.606 551.11 362.406 551.11C361.066 551.11 359.866 550.84 358.806 550.3C357.766 549.74 356.946 548.93 356.346 547.87C355.746 546.81 355.446 545.53 355.446 544.03C355.446 541.89 356.066 540.17 357.306 538.87C358.546 537.55 360.306 536.89 362.586 536.89C365.386 536.89 367.346 537.8 368.466 539.62C369.606 541.44 370.176 544.15 370.176 547.75C370.176 550.27 369.946 552.35 369.486 553.99C369.046 555.63 368.286 556.88 367.206 557.74C366.146 558.6 364.686 559.03 362.826 559.03C360.786 559.03 359.196 558.48 358.056 557.38C356.916 556.28 356.266 554.88 356.106 553.18H358.626ZM362.856 548.8C364.196 548.8 365.296 548.39 366.156 547.57C367.016 546.73 367.446 545.6 367.446 544.18C367.446 542.68 367.026 541.47 366.186 540.55C365.346 539.63 364.166 539.17 362.646 539.17C361.246 539.17 360.126 539.61 359.286 540.49C358.466 541.37 358.056 542.53 358.056 543.97C358.056 545.43 358.466 546.6 359.286 547.48C360.106 548.36 361.296 548.8 362.856 548.8Z" fill="white"/>
<path d="M232.53 556.81C235.07 554.77 237.06 553.1 238.5 551.8C239.94 550.48 241.15 549.11 242.13 547.69C243.13 546.25 243.63 544.84 243.63 543.46C243.63 542.16 243.31 541.14 242.67 540.4C242.05 539.64 241.04 539.26 239.64 539.26C238.28 539.26 237.22 539.69 236.46 540.55C235.72 541.39 235.32 542.52 235.26 543.94H232.62C232.7 541.7 233.38 539.97 234.66 538.75C235.94 537.53 237.59 536.92 239.61 536.92C241.67 536.92 243.3 537.49 244.5 538.63C245.72 539.77 246.33 541.34 246.33 543.34C246.33 545 245.83 546.62 244.83 548.2C243.85 549.76 242.73 551.14 241.47 552.34C240.21 553.52 238.6 554.9 236.64 556.48H246.96V558.76H232.53V556.81ZM254.076 547.72C252.956 547.28 252.096 546.64 251.496 545.8C250.896 544.96 250.596 543.94 250.596 542.74C250.596 541.66 250.866 540.69 251.406 539.83C251.946 538.95 252.746 538.26 253.806 537.76C254.886 537.24 256.186 536.98 257.706 536.98C259.226 536.98 260.516 537.24 261.576 537.76C262.656 538.26 263.466 538.95 264.006 539.83C264.566 540.69 264.846 541.66 264.846 542.74C264.846 543.9 264.536 544.92 263.916 545.8C263.296 546.66 262.446 547.3 261.366 547.72C262.606 548.1 263.586 548.77 264.306 549.73C265.046 550.67 265.416 551.81 265.416 553.15C265.416 554.45 265.096 555.59 264.456 556.57C263.816 557.53 262.906 558.28 261.726 558.82C260.566 559.34 259.226 559.6 257.706 559.6C256.186 559.6 254.846 559.34 253.686 558.82C252.546 558.28 251.656 557.53 251.016 556.57C250.376 555.59 250.056 554.45 250.056 553.15C250.056 551.81 250.416 550.66 251.136 549.7C251.856 548.74 252.836 548.08 254.076 547.72ZM262.206 543.07C262.206 541.85 261.806 540.91 261.006 540.25C260.206 539.59 259.106 539.26 257.706 539.26C256.326 539.26 255.236 539.59 254.436 540.25C253.636 540.91 253.236 541.86 253.236 543.1C253.236 544.22 253.646 545.12 254.466 545.8C255.306 546.48 256.386 546.82 257.706 546.82C259.046 546.82 260.126 546.48 260.946 545.8C261.786 545.1 262.206 544.19 262.206 543.07ZM257.706 548.92C256.226 548.92 255.016 549.27 254.076 549.97C253.136 550.65 252.666 551.68 252.666 553.06C252.666 554.34 253.116 555.37 254.016 556.15C254.936 556.93 256.166 557.32 257.706 557.32C259.246 557.32 260.466 556.93 261.366 556.15C262.266 555.37 262.716 554.34 262.716 553.06C262.716 551.72 262.256 550.7 261.336 550C260.416 549.28 259.206 548.92 257.706 548.92Z" fill="white"/>
<path d="M132.53 556.81C135.07 554.77 137.06 553.1 138.5 551.8C139.94 550.48 141.15 549.11 142.13 547.69C143.13 546.25 143.63 544.84 143.63 543.46C143.63 542.16 143.31 541.14 142.67 540.4C142.05 539.64 141.04 539.26 139.64 539.26C138.28 539.26 137.22 539.69 136.46 540.55C135.72 541.39 135.32 542.52 135.26 543.94H132.62C132.7 541.7 133.38 539.97 134.66 538.75C135.94 537.53 137.59 536.92 139.61 536.92C141.67 536.92 143.3 537.49 144.5 538.63C145.72 539.77 146.33 541.34 146.33 543.34C146.33 545 145.83 546.62 144.83 548.2C143.85 549.76 142.73 551.14 141.47 552.34C140.21 553.52 138.6 554.9 136.64 556.48H146.96V558.76H132.53V556.81ZM163.466 539.44L155.126 559H152.366L160.826 539.71H149.246V537.37H163.466V539.44Z" fill="white"/>
<path d="M36.53 557.81C39.07 555.77 41.06 554.1 42.5 552.8C43.94 551.48 45.15 550.11 46.13 548.69C47.13 547.25 47.63 545.84 47.63 544.46C47.63 543.16 47.31 542.14 46.67 541.4C46.05 540.64 45.04 540.26 43.64 540.26C42.28 540.26 41.22 540.69 40.46 541.55C39.72 542.39 39.32 543.52 39.26 544.94H36.62C36.7 542.7 37.38 540.97 38.66 539.75C39.94 538.53 41.59 537.92 43.61 537.92C45.67 537.92 47.3 538.49 48.5 539.63C49.72 540.77 50.33 542.34 50.33 544.34C50.33 546 49.83 547.62 48.83 549.2C47.85 550.76 46.73 552.14 45.47 553.34C44.21 554.52 42.6 555.9 40.64 557.48H50.96V559.76H36.53V557.81ZM66.2059 543.47C65.7659 541.25 64.3959 540.14 62.0959 540.14C60.3159 540.14 58.9859 540.83 58.1059 542.21C57.2259 543.57 56.7959 545.82 56.8159 548.96C57.2759 547.92 58.0359 547.11 59.0959 546.53C60.1759 545.93 61.3759 545.63 62.6959 545.63C64.7559 545.63 66.3959 546.27 67.6159 547.55C68.8559 548.83 69.4759 550.6 69.4759 552.86C69.4759 554.22 69.2059 555.44 68.6659 556.52C68.1459 557.6 67.3459 558.46 66.2659 559.1C65.2059 559.74 63.9159 560.06 62.3959 560.06C60.3359 560.06 58.7259 559.6 57.5659 558.68C56.4059 557.76 55.5959 556.49 55.1359 554.87C54.6759 553.25 54.4459 551.25 54.4459 548.87C54.4459 541.53 57.0059 537.86 62.1259 537.86C64.0859 537.86 65.6259 538.39 66.7459 539.45C67.8659 540.51 68.5259 541.85 68.7259 543.47H66.2059ZM62.1259 547.94C61.2659 547.94 60.4559 548.12 59.6959 548.48C58.9359 548.82 58.3159 549.35 57.8359 550.07C57.3759 550.77 57.1459 551.63 57.1459 552.65C57.1459 554.17 57.5859 555.41 58.4659 556.37C59.3459 557.31 60.6059 557.78 62.2459 557.78C63.6459 557.78 64.7559 557.35 65.5759 556.49C66.4159 555.61 66.8359 554.43 66.8359 552.95C66.8359 551.39 66.4359 550.17 65.6359 549.29C64.8359 548.39 63.6659 547.94 62.1259 547.94Z" fill="white"/>
<rect x="400.5" y="499.5" width="99" height="99" fill="#2E2E2E" stroke="#212121"/>
<rect x="600.5" y="499.5" width="99" height="99" fill="#2E2E2E" stroke="#212121"/>
<rect x="500.5" y="499.5" width="99" height="99" fill="#2E2E2E" stroke="#212121"/>
<path d="M429.86 148.93C429.86 145.49 430.42 142.81 431.54 140.89C432.66 138.95 434.62 137.98 437.42 137.98C440.2 137.98 442.15 138.95 443.27 140.89C444.39 142.81 444.95 145.49 444.95 148.93C444.95 152.43 444.39 155.15 443.27 157.09C442.15 159.03 440.2 160 437.42 160C434.62 160 432.66 159.03 431.54 157.09C430.42 155.15 429.86 152.43 429.86 148.93ZM442.25 148.93C442.25 147.19 442.13 145.72 441.89 144.52C441.67 143.3 441.2 142.32 440.48 141.58C439.78 140.84 438.76 140.47 437.42 140.47C436.06 140.47 435.02 140.84 434.3 141.58C433.6 142.32 433.13 143.3 432.89 144.52C432.67 145.72 432.56 147.19 432.56 148.93C432.56 150.73 432.67 152.24 432.89 153.46C433.13 154.68 433.6 155.66 434.3 156.4C435.02 157.14 436.06 157.51 437.42 157.51C438.76 157.51 439.78 157.14 440.48 156.4C441.2 155.66 441.67 154.68 441.89 153.46C442.13 152.24 442.25 150.73 442.25 148.93ZM448.368 157.81C450.908 155.77 452.898 154.1 454.338 152.8C455.778 151.48 456.988 150.11 457.968 148.69C458.968 147.25 459.468 145.84 459.468 144.46C459.468 143.16 459.148 142.14 458.508 141.4C457.888 140.64 456.878 140.26 455.478 140.26C454.118 140.26 453.058 140.69 452.298 141.55C451.558 142.39 451.158 143.52 451.098 144.94H448.458C448.538 142.7 449.218 140.97 450.498 139.75C451.778 138.53 453.428 137.92 455.448 137.92C457.508 137.92 459.138 138.49 460.338 139.63C461.558 140.77 462.168 142.34 462.168 144.34C462.168 146 461.668 147.62 460.668 149.2C459.688 150.76 458.568 152.14 457.308 153.34C456.048 154.52 454.438 155.9 452.478 157.48H462.798V159.76H448.368V157.81Z" fill="white"/>
<path d="M532.86 148.93C532.86 145.49 533.42 142.81 534.54 140.89C535.66 138.95 537.62 137.98 540.42 137.98C543.2 137.98 545.15 138.95 546.27 140.89C547.39 142.81 547.95 145.49 547.95 148.93C547.95 152.43 547.39 155.15 546.27 157.09C545.15 159.03 543.2 160 540.42 160C537.62 160 535.66 159.03 534.54 157.09C533.42 155.15 532.86 152.43 532.86 148.93ZM545.25 148.93C545.25 147.19 545.13 145.72 544.89 144.52C544.67 143.3 544.2 142.32 543.48 141.58C542.78 140.84 541.76 140.47 540.42 140.47C539.06 140.47 538.02 140.84 537.3 141.58C536.6 142.32 536.13 143.3 535.89 144.52C535.67 145.72 535.56 147.19 535.56 148.93C535.56 150.73 535.67 152.24 535.89 153.46C536.13 154.68 536.6 155.66 537.3 156.4C538.02 157.14 539.06 157.51 540.42 157.51C541.76 157.51 542.78 157.14 543.48 156.4C544.2 155.66 544.67 154.68 544.89 153.46C545.13 152.24 545.25 150.73 545.25 148.93ZM551.638 143.77C551.778 141.93 552.488 140.49 553.768 139.45C555.048 138.41 556.708 137.89 558.748 137.89C560.108 137.89 561.278 138.14 562.258 138.64C563.258 139.12 564.008 139.78 564.508 140.62C565.028 141.46 565.288 142.41 565.288 143.47C565.288 144.71 564.928 145.78 564.208 146.68C563.508 147.58 562.588 148.16 561.448 148.42V148.57C562.748 148.89 563.778 149.52 564.538 150.46C565.298 151.4 565.678 152.63 565.678 154.15C565.678 155.29 565.418 156.32 564.898 157.24C564.378 158.14 563.598 158.85 562.558 159.37C561.518 159.89 560.268 160.15 558.808 160.15C556.688 160.15 554.948 159.6 553.588 158.5C552.228 157.38 551.468 155.8 551.308 153.76H553.948C554.088 154.96 554.578 155.94 555.418 156.7C556.258 157.46 557.378 157.84 558.778 157.84C560.178 157.84 561.238 157.48 561.958 156.76C562.698 156.02 563.068 155.07 563.068 153.91C563.068 152.41 562.568 151.33 561.568 150.67C560.568 150.01 559.058 149.68 557.038 149.68H556.348V147.4H557.068C558.908 147.38 560.298 147.08 561.238 146.5C562.178 145.9 562.648 144.98 562.648 143.74C562.648 142.68 562.298 141.83 561.598 141.19C560.918 140.55 559.938 140.23 558.658 140.23C557.418 140.23 556.418 140.55 555.658 141.19C554.898 141.83 554.448 142.69 554.308 143.77H551.638Z" fill="black"/>
<path d="M629.86 148.93C629.86 145.49 630.42 142.81 631.54 140.89C632.66 138.95 634.62 137.98 637.42 137.98C640.2 137.98 642.15 138.95 643.27 140.89C644.39 142.81 644.95 145.49 644.95 148.93C644.95 152.43 644.39 155.15 643.27 157.09C642.15 159.03 640.2 160 637.42 160C634.62 160 632.66 159.03 631.54 157.09C630.42 155.15 629.86 152.43 629.86 148.93ZM642.25 148.93C642.25 147.19 642.13 145.72 641.89 144.52C641.67 143.3 641.2 142.32 640.48 141.58C639.78 140.84 638.76 140.47 637.42 140.47C636.06 140.47 635.02 140.84 634.3 141.58C633.6 142.32 633.13 143.3 632.89 144.52C632.67 145.72 632.56 147.19 632.56 148.93C632.56 150.73 632.67 152.24 632.89 153.46C633.13 154.68 633.6 155.66 634.3 156.4C635.02 157.14 636.06 157.51 637.42 157.51C638.76 157.51 639.78 157.14 640.48 156.4C641.2 155.66 641.67 154.68 641.89 153.46C642.13 152.24 642.25 150.73 642.25 148.93ZM648.038 155.17V153.1L658.568 138.52H661.838V152.8H664.838V155.17H661.838V160H659.138V155.17H648.038ZM659.258 141.37L651.188 152.8H659.258V141.37Z" fill="black"/>
<path d="M32.86 248.93C32.86 245.49 33.42 242.81 34.54 240.89C35.66 238.95 37.62 237.98 40.42 237.98C43.2 237.98 45.15 238.95 46.27 240.89C47.39 242.81 47.95 245.49 47.95 248.93C47.95 252.43 47.39 255.15 46.27 257.09C45.15 259.03 43.2 260 40.42 260C37.62 260 35.66 259.03 34.54 257.09C33.42 255.15 32.86 252.43 32.86 248.93ZM45.25 248.93C45.25 247.19 45.13 245.72 44.89 244.52C44.67 243.3 44.2 242.32 43.48 241.58C42.78 240.84 41.76 240.47 40.42 240.47C39.06 240.47 38.02 240.84 37.3 241.58C36.6 242.32 36.13 243.3 35.89 244.52C35.67 245.72 35.56 247.19 35.56 248.93C35.56 250.73 35.67 252.24 35.89 253.46C36.13 254.68 36.6 255.66 37.3 256.4C38.02 257.14 39.06 257.51 40.42 257.51C41.76 257.51 42.78 257.14 43.48 256.4C44.2 255.66 44.67 254.68 44.89 253.46C45.13 252.24 45.25 250.73 45.25 248.93ZM65.5279 240.68H54.9979V247.52C55.4579 246.88 56.1379 246.36 57.0379 245.96C57.9379 245.54 58.9079 245.33 59.9479 245.33C61.6079 245.33 62.9579 245.68 63.9979 246.38C65.0379 247.06 65.7779 247.95 66.2179 249.05C66.6779 250.13 66.9079 251.28 66.9079 252.5C66.9079 253.94 66.6379 255.23 66.0979 256.37C65.5579 257.51 64.7279 258.41 63.6079 259.07C62.5079 259.73 61.1379 260.06 59.4979 260.06C57.3979 260.06 55.6979 259.52 54.3979 258.44C53.0979 257.36 52.3079 255.92 52.0279 254.12H54.6979C54.9579 255.26 55.5079 256.15 56.3479 256.79C57.1879 257.43 58.2479 257.75 59.5279 257.75C61.1079 257.75 62.2979 257.28 63.0979 256.34C63.8979 255.38 64.2979 254.12 64.2979 252.56C64.2979 251 63.8979 249.8 63.0979 248.96C62.2979 248.1 61.1179 247.67 59.5579 247.67C58.4979 247.67 57.5679 247.93 56.7679 248.45C55.9879 248.95 55.4179 249.64 55.0579 250.52H52.4779V238.28H65.5279V240.68Z" fill="white"/>
<path d="M128.86 248.93C128.86 245.49 129.42 242.81 130.54 240.89C131.66 238.95 133.62 237.98 136.42 237.98C139.2 237.98 141.15 238.95 142.27 240.89C143.39 242.81 143.95 245.49 143.95 248.93C143.95 252.43 143.39 255.15 142.27 257.09C141.15 259.03 139.2 260 136.42 260C133.62 260 131.66 259.03 130.54 257.09C129.42 255.15 128.86 252.43 128.86 248.93ZM141.25 248.93C141.25 247.19 141.13 245.72 140.89 244.52C140.67 243.3 140.2 242.32 139.48 241.58C138.78 240.84 137.76 240.47 136.42 240.47C135.06 240.47 134.02 240.84 133.3 241.58C132.6 242.32 132.13 243.3 131.89 244.52C131.67 245.72 131.56 247.19 131.56 248.93C131.56 250.73 131.67 252.24 131.89 253.46C132.13 254.68 132.6 255.66 133.3 256.4C134.02 257.14 135.06 257.51 136.42 257.51C137.76 257.51 138.78 257.14 139.48 256.4C140.2 255.66 140.67 254.68 140.89 253.46C141.13 252.24 141.25 250.73 141.25 248.93ZM159.788 243.47C159.348 241.25 157.978 240.14 155.678 240.14C153.898 240.14 152.568 240.83 151.688 242.21C150.808 243.57 150.378 245.82 150.398 248.96C150.858 247.92 151.618 247.11 152.678 246.53C153.758 245.93 154.958 245.63 156.278 245.63C158.338 245.63 159.978 246.27 161.198 247.55C162.438 248.83 163.058 250.6 163.058 252.86C163.058 254.22 162.788 255.44 162.248 256.52C161.728 257.6 160.928 258.46 159.848 259.1C158.788 259.74 157.498 260.06 155.978 260.06C153.918 260.06 152.308 259.6 151.148 258.68C149.988 257.76 149.178 256.49 148.718 254.87C148.258 253.25 148.028 251.25 148.028 248.87C148.028 241.53 150.588 237.86 155.708 237.86C157.668 237.86 159.208 238.39 160.328 239.45C161.448 240.51 162.108 241.85 162.308 243.47H159.788ZM155.708 247.94C154.848 247.94 154.038 248.12 153.278 248.48C152.518 248.82 151.898 249.35 151.418 250.07C150.958 250.77 150.728 251.63 150.728 252.65C150.728 254.17 151.168 255.41 152.048 256.37C152.928 257.31 154.188 257.78 155.828 257.78C157.228 257.78 158.338 257.35 159.158 256.49C159.998 255.61 160.418 254.43 160.418 252.95C160.418 251.39 160.018 250.17 159.218 249.29C158.418 248.39 157.248 247.94 155.708 247.94Z" fill="white"/>
<path d="M232.86 248.93C232.86 245.49 233.42 242.81 234.54 240.89C235.66 238.95 237.62 237.98 240.42 237.98C243.2 237.98 245.15 238.95 246.27 240.89C247.39 242.81 247.95 245.49 247.95 248.93C247.95 252.43 247.39 255.15 246.27 257.09C245.15 259.03 243.2 260 240.42 260C237.62 260 235.66 259.03 234.54 257.09C233.42 255.15 232.86 252.43 232.86 248.93ZM245.25 248.93C245.25 247.19 245.13 245.72 244.89 244.52C244.67 243.3 244.2 242.32 243.48 241.58C242.78 240.84 241.76 240.47 240.42 240.47C239.06 240.47 238.02 240.84 237.3 241.58C236.6 242.32 236.13 243.3 235.89 244.52C235.67 245.72 235.56 247.19 235.56 248.93C235.56 250.73 235.67 252.24 235.89 253.46C236.13 254.68 236.6 255.66 237.3 256.4C238.02 257.14 239.06 257.51 240.42 257.51C241.76 257.51 242.78 257.14 243.48 256.4C244.2 255.66 244.67 254.68 244.89 253.46C245.13 252.24 245.25 250.73 245.25 248.93ZM265.048 240.44L256.708 260H253.948L262.408 240.71H250.828V238.37H265.048V240.44Z" fill="white"/>
<path d="M330.86 248.93C330.86 245.49 331.42 242.81 332.54 240.89C333.66 238.95 335.62 237.98 338.42 237.98C341.2 237.98 343.15 238.95 344.27 240.89C345.39 242.81 345.95 245.49 345.95 248.93C345.95 252.43 345.39 255.15 344.27 257.09C343.15 259.03 341.2 260 338.42 260C335.62 260 333.66 259.03 332.54 257.09C331.42 255.15 330.86 252.43 330.86 248.93ZM343.25 248.93C343.25 247.19 343.13 245.72 342.89 244.52C342.67 243.3 342.2 242.32 341.48 241.58C340.78 240.84 339.76 240.47 338.42 240.47C337.06 240.47 336.02 240.84 335.3 241.58C334.6 242.32 334.13 243.3 333.89 244.52C333.67 245.72 333.56 247.19 333.56 248.93C333.56 250.73 333.67 252.24 333.89 253.46C334.13 254.68 334.6 255.66 335.3 256.4C336.02 257.14 337.06 257.51 338.42 257.51C339.76 257.51 340.78 257.14 341.48 256.4C342.2 255.66 342.67 254.68 342.89 253.46C343.13 252.24 343.25 250.73 343.25 248.93ZM353.658 248.72C352.538 248.28 351.678 247.64 351.078 246.8C350.478 245.96 350.178 244.94 350.178 243.74C350.178 242.66 350.448 241.69 350.988 240.83C351.528 239.95 352.328 239.26 353.388 238.76C354.468 238.24 355.768 237.98 357.288 237.98C358.808 237.98 360.098 238.24 361.158 238.76C362.238 239.26 363.048 239.95 363.588 240.83C364.148 241.69 364.428 242.66 364.428 243.74C364.428 244.9 364.118 245.92 363.498 246.8C362.878 247.66 362.028 248.3 360.948 248.72C362.188 249.1 363.168 249.77 363.888 250.73C364.628 251.67 364.998 252.81 364.998 254.15C364.998 255.45 364.678 256.59 364.038 257.57C363.398 258.53 362.488 259.28 361.308 259.82C360.148 260.34 358.808 260.6 357.288 260.6C355.768 260.6 354.428 260.34 353.268 259.82C352.128 259.28 351.238 258.53 350.598 257.57C349.958 256.59 349.638 255.45 349.638 254.15C349.638 252.81 349.998 251.66 350.718 250.7C351.438 249.74 352.418 249.08 353.658 248.72ZM361.788 244.07C361.788 242.85 361.388 241.91 360.588 241.25C359.788 240.59 358.688 240.26 357.288 240.26C355.908 240.26 354.818 240.59 354.018 241.25C353.218 241.91 352.818 242.86 352.818 244.1C352.818 245.22 353.228 246.12 354.048 246.8C354.888 247.48 355.968 247.82 357.288 247.82C358.628 247.82 359.708 247.48 360.528 246.8C361.368 246.1 361.788 245.19 361.788 244.07ZM357.288 249.92C355.808 249.92 354.598 250.27 353.658 250.97C352.718 251.65 352.248 252.68 352.248 254.06C352.248 255.34 352.698 256.37 353.598 257.15C354.518 257.93 355.748 258.32 357.288 258.32C358.828 258.32 360.048 257.93 360.948 257.15C361.848 256.37 362.298 255.34 362.298 254.06C362.298 252.72 361.838 251.7 360.918 251C359.998 250.28 358.788 249.92 357.288 249.92Z" fill="white"/>
<path d="M429.86 248.93C429.86 245.49 430.42 242.81 431.54 240.89C432.66 238.95 434.62 237.98 437.42 237.98C440.2 237.98 442.15 238.95 443.27 240.89C444.39 242.81 444.95 245.49 444.95 248.93C444.95 252.43 444.39 255.15 443.27 257.09C442.15 259.03 440.2 260 437.42 260C434.62 260 432.66 259.03 431.54 257.09C430.42 255.15 429.86 252.43 429.86 248.93ZM442.25 248.93C442.25 247.19 442.13 245.72 441.89 244.52C441.67 243.3 441.2 242.32 440.48 241.58C439.78 240.84 438.76 240.47 437.42 240.47C436.06 240.47 435.02 240.84 434.3 241.58C433.6 242.32 433.13 243.3 432.89 244.52C432.67 245.72 432.56 247.19 432.56 248.93C432.56 250.73 432.67 252.24 432.89 253.46C433.13 254.68 433.6 255.66 434.3 256.4C435.02 257.14 436.06 257.51 437.42 257.51C438.76 257.51 439.78 257.14 440.48 256.4C441.2 255.66 441.67 254.68 441.89 253.46C442.13 252.24 442.25 250.73 442.25 248.93ZM452.208 254.18C452.408 255.32 452.868 256.2 453.588 256.82C454.328 257.44 455.318 257.75 456.558 257.75C458.218 257.75 459.438 257.1 460.218 255.8C461.018 254.5 461.398 252.31 461.358 249.23C460.938 250.13 460.238 250.84 459.258 251.36C458.278 251.86 457.188 252.11 455.988 252.11C454.648 252.11 453.448 251.84 452.388 251.3C451.348 250.74 450.528 249.93 449.928 248.87C449.328 247.81 449.028 246.53 449.028 245.03C449.028 242.89 449.648 241.17 450.888 239.87C452.128 238.55 453.888 237.89 456.168 237.89C458.968 237.89 460.928 238.8 462.048 240.62C463.188 242.44 463.758 245.15 463.758 248.75C463.758 251.27 463.528 253.35 463.068 254.99C462.628 256.63 461.868 257.88 460.788 258.74C459.728 259.6 458.268 260.03 456.408 260.03C454.368 260.03 452.778 259.48 451.638 258.38C450.498 257.28 449.848 255.88 449.688 254.18H452.208ZM456.438 249.8C457.778 249.8 458.878 249.39 459.738 248.57C460.598 247.73 461.028 246.6 461.028 245.18C461.028 243.68 460.608 242.47 459.768 241.55C458.928 240.63 457.748 240.17 456.228 240.17C454.828 240.17 453.708 240.61 452.868 241.49C452.048 242.37 451.638 243.53 451.638 244.97C451.638 246.43 452.048 247.6 452.868 248.48C453.688 249.36 454.878 249.8 456.438 249.8Z" fill="white"/>
<path d="M536.14 240.8V238.31H541.78V260H539.02V240.8H536.14ZM546.469 248.93C546.469 245.49 547.029 242.81 548.149 240.89C549.269 238.95 551.229 237.98 554.029 237.98C556.809 237.98 558.759 238.95 559.879 240.89C560.999 242.81 561.559 245.49 561.559 248.93C561.559 252.43 560.999 255.15 559.879 257.09C558.759 259.03 556.809 260 554.029 260C551.229 260 549.269 259.03 548.149 257.09C547.029 255.15 546.469 252.43 546.469 248.93ZM558.859 248.93C558.859 247.19 558.739 245.72 558.499 244.52C558.279 243.3 557.809 242.32 557.089 241.58C556.389 240.84 555.369 240.47 554.029 240.47C552.669 240.47 551.629 240.84 550.909 241.58C550.209 242.32 549.739 243.3 549.499 244.52C549.279 245.72 549.169 247.19 549.169 248.93C549.169 250.73 549.279 252.24 549.499 253.46C549.739 254.68 550.209 255.66 550.909 256.4C551.629 257.14 552.669 257.51 554.029 257.51C555.369 257.51 556.389 257.14 557.089 256.4C557.809 255.66 558.279 254.68 558.499 253.46C558.739 252.24 558.859 250.73 558.859 248.93Z" fill="black"/>
<path d="M638.14 240.8V238.31H643.78V260H641.02V240.8H638.14ZM647.749 240.8V238.31H653.389V260H650.629V240.8H647.749Z" fill="black"/>
<path d="M41.14 339.8V337.31H46.78V359H44.02V339.8H41.14ZM51.1394 356.81C53.6794 354.77 55.6694 353.1 57.1094 351.8C58.5494 350.48 59.7594 349.11 60.7394 347.69C61.7394 346.25 62.2394 344.84 62.2394 343.46C62.2394 342.16 61.9194 341.14 61.2794 340.4C60.6594 339.64 59.6494 339.26 58.2494 339.26C56.8894 339.26 55.8294 339.69 55.0694 340.55C54.3294 341.39 53.9294 342.52 53.8694 343.94H51.2294C51.3094 341.7 51.9894 339.97 53.2694 338.75C54.5494 337.53 56.1994 336.92 58.2194 336.92C60.2794 336.92 61.9094 337.49 63.1094 338.63C64.3294 339.77 64.9394 341.34 64.9394 343.34C64.9394 345 64.4394 346.62 63.4394 348.2C62.4594 349.76 61.3394 351.14 60.0794 352.34C58.8194 353.52 57.2094 354.9 55.2494 356.48H65.5694V358.76H51.1394V356.81Z" fill="white"/>
<path d="M137.14 340.8V338.31H142.78V360H140.02V340.8H137.14ZM147.409 343.77C147.549 341.93 148.259 340.49 149.539 339.45C150.819 338.41 152.479 337.89 154.519 337.89C155.879 337.89 157.049 338.14 158.029 338.64C159.029 339.12 159.779 339.78 160.279 340.62C160.799 341.46 161.059 342.41 161.059 343.47C161.059 344.71 160.699 345.78 159.979 346.68C159.279 347.58 158.359 348.16 157.219 348.42V348.57C158.519 348.89 159.549 349.52 160.309 350.46C161.069 351.4 161.449 352.63 161.449 354.15C161.449 355.29 161.189 356.32 160.669 357.24C160.149 358.14 159.369 358.85 158.329 359.37C157.289 359.89 156.039 360.15 154.579 360.15C152.459 360.15 150.719 359.6 149.359 358.5C147.999 357.38 147.239 355.8 147.079 353.76H149.719C149.859 354.96 150.349 355.94 151.189 356.7C152.029 357.46 153.149 357.84 154.549 357.84C155.949 357.84 157.009 357.48 157.729 356.76C158.469 356.02 158.839 355.07 158.839 353.91C158.839 352.41 158.339 351.33 157.339 350.67C156.339 350.01 154.829 349.68 152.809 349.68H152.119V347.4H152.839C154.679 347.38 156.069 347.08 157.009 346.5C157.949 345.9 158.419 344.98 158.419 343.74C158.419 342.68 158.069 341.83 157.369 341.19C156.689 340.55 155.709 340.23 154.429 340.23C153.189 340.23 152.189 340.55 151.429 341.19C150.669 341.83 150.219 342.69 150.079 343.77H147.409Z" fill="white"/>
<path d="M243.14 340.8V338.31H248.78V360H246.02V340.8H243.14ZM252.809 355.17V353.1L263.339 338.52H266.609V352.8H269.609V355.17H266.609V360H263.909V355.17H252.809ZM264.029 341.37L255.959 352.8H264.029V341.37Z" fill="white"/>
<path d="M336.14 343.8V341.31H341.78V363H339.02V343.8H336.14ZM360.299 343.68H349.769V350.52C350.229 349.88 350.909 349.36 351.809 348.96C352.709 348.54 353.679 348.33 354.719 348.33C356.379 348.33 357.729 348.68 358.769 349.38C359.809 350.06 360.549 350.95 360.989 352.05C361.449 353.13 361.679 354.28 361.679 355.5C361.679 356.94 361.409 358.23 360.869 359.37C360.329 360.51 359.499 361.41 358.379 362.07C357.279 362.73 355.909 363.06 354.269 363.06C352.169 363.06 350.469 362.52 349.169 361.44C347.869 360.36 347.079 358.92 346.799 357.12H349.469C349.729 358.26 350.279 359.15 351.119 359.79C351.959 360.43 353.019 360.75 354.299 360.75C355.879 360.75 357.069 360.28 357.869 359.34C358.669 358.38 359.069 357.12 359.069 355.56C359.069 354 358.669 352.8 357.869 351.96C357.069 351.1 355.889 350.67 354.329 350.67C353.269 350.67 352.339 350.93 351.539 351.45C350.759 351.95 350.189 352.64 349.829 353.52H347.249V341.28H360.299V343.68Z" fill="white"/>
<path d="M433.14 343.8V341.31H438.78V363H436.02V343.8H433.14ZM455.559 346.47C455.119 344.25 453.749 343.14 451.449 343.14C449.669 343.14 448.339 343.83 447.459 345.21C446.579 346.57 446.149 348.82 446.169 351.96C446.629 350.92 447.389 350.11 448.449 349.53C449.529 348.93 450.729 348.63 452.049 348.63C454.109 348.63 455.749 349.27 456.969 350.55C458.209 351.83 458.829 353.6 458.829 355.86C458.829 357.22 458.559 358.44 458.019 359.52C457.499 360.6 456.699 361.46 455.619 362.1C454.559 362.74 453.269 363.06 451.749 363.06C449.689 363.06 448.079 362.6 446.919 361.68C445.759 360.76 444.949 359.49 444.489 357.87C444.029 356.25 443.799 354.25 443.799 351.87C443.799 344.53 446.359 340.86 451.479 340.86C453.439 340.86 454.979 341.39 456.099 342.45C457.219 343.51 457.879 344.85 458.079 346.47H455.559ZM451.479 350.94C450.619 350.94 449.809 351.12 449.049 351.48C448.289 351.82 447.669 352.35 447.189 353.07C446.729 353.77 446.499 354.63 446.499 355.65C446.499 357.17 446.939 358.41 447.819 359.37C448.699 360.31 449.959 360.78 451.599 360.78C452.999 360.78 454.109 360.35 454.929 359.49C455.769 358.61 456.189 357.43 456.189 355.95C456.189 354.39 455.789 353.17 454.989 352.29C454.189 351.39 453.019 350.94 451.479 350.94Z" fill="white"/>
<path d="M538.14 340.8V338.31H543.78V360H541.02V340.8H538.14ZM561.819 340.44L553.479 360H550.719L559.179 340.71H547.599V338.37H561.819V340.44Z" fill="black"/>
<path d="M641.14 343.8V341.31H646.78V363H644.02V343.8H641.14ZM655.429 351.72C654.309 351.28 653.449 350.64 652.849 349.8C652.249 348.96 651.949 347.94 651.949 346.74C651.949 345.66 652.219 344.69 652.759 343.83C653.299 342.95 654.099 342.26 655.159 341.76C656.239 341.24 657.539 340.98 659.059 340.98C660.579 340.98 661.869 341.24 662.929 341.76C664.009 342.26 664.819 342.95 665.359 343.83C665.919 344.69 666.199 345.66 666.199 346.74C666.199 347.9 665.889 348.92 665.269 349.8C664.649 350.66 663.799 351.3 662.719 351.72C663.959 352.1 664.939 352.77 665.659 353.73C666.399 354.67 666.769 355.81 666.769 357.15C666.769 358.45 666.449 359.59 665.809 360.57C665.169 361.53 664.259 362.28 663.079 362.82C661.919 363.34 660.579 363.6 659.059 363.6C657.539 363.6 656.199 363.34 655.039 362.82C653.899 362.28 653.009 361.53 652.369 360.57C651.729 359.59 651.409 358.45 651.409 357.15C651.409 355.81 651.769 354.66 652.489 353.7C653.209 352.74 654.189 352.08 655.429 351.72ZM663.559 347.07C663.559 345.85 663.159 344.91 662.359 344.25C661.559 343.59 660.459 343.26 659.059 343.26C657.679 343.26 656.589 343.59 655.789 344.25C654.989 344.91 654.589 345.86 654.589 347.1C654.589 348.22 654.999 349.12 655.819 349.8C656.659 350.48 657.739 350.82 659.059 350.82C660.399 350.82 661.479 350.48 662.299 349.8C663.139 349.1 663.559 348.19 663.559 347.07ZM659.059 352.92C657.579 352.92 656.369 353.27 655.429 353.97C654.489 354.65 654.019 355.68 654.019 357.06C654.019 358.34 654.469 359.37 655.369 360.15C656.289 360.93 657.519 361.32 659.059 361.32C660.599 361.32 661.819 360.93 662.719 360.15C663.619 359.37 664.069 358.34 664.069 357.06C664.069 355.72 663.609 354.7 662.689 354C661.769 353.28 660.559 352.92 659.059 352.92Z" fill="black"/>
<path d="M39.14 432.8V430.31H44.78V452H42.02V432.8H39.14ZM52.9794 446.18C53.1794 447.32 53.6394 448.2 54.3594 448.82C55.0994 449.44 56.0894 449.75 57.3294 449.75C58.9894 449.75 60.2094 449.1 60.9894 447.8C61.7894 446.5 62.1694 444.31 62.1294 441.23C61.7094 442.13 61.0094 442.84 60.0294 443.36C59.0494 443.86 57.9594 444.11 56.7594 444.11C55.4194 444.11 54.2194 443.84 53.1594 443.3C52.1194 442.74 51.2994 441.93 50.6994 440.87C50.0994 439.81 49.7994 438.53 49.7994 437.03C49.7994 434.89 50.4194 433.17 51.6594 431.87C52.8994 430.55 54.6594 429.89 56.9394 429.89C59.7394 429.89 61.6994 430.8 62.8194 432.62C63.9594 434.44 64.5294 437.15 64.5294 440.75C64.5294 443.27 64.2994 445.35 63.8394 446.99C63.3994 448.63 62.6394 449.88 61.5594 450.74C60.4994 451.6 59.0394 452.03 57.1794 452.03C55.1394 452.03 53.5494 451.48 52.4094 450.38C51.2694 449.28 50.6194 447.88 50.4594 446.18H52.9794ZM57.2094 441.8C58.5494 441.8 59.6494 441.39 60.5094 440.57C61.3694 439.73 61.7994 438.6 61.7994 437.18C61.7994 435.68 61.3794 434.47 60.5394 433.55C59.6994 432.63 58.5194 432.17 56.9994 432.17C55.5994 432.17 54.4794 432.61 53.6394 433.49C52.8194 434.37 52.4094 435.53 52.4094 436.97C52.4094 438.43 52.8194 439.6 53.6394 440.48C54.4594 441.36 55.6494 441.8 57.2094 441.8Z" fill="white"/>
<path d="M132.53 449.81C135.07 447.77 137.06 446.1 138.5 444.8C139.94 443.48 141.15 442.11 142.13 440.69C143.13 439.25 143.63 437.84 143.63 436.46C143.63 435.16 143.31 434.14 142.67 433.4C142.05 432.64 141.04 432.26 139.64 432.26C138.28 432.26 137.22 432.69 136.46 433.55C135.72 434.39 135.32 435.52 135.26 436.94H132.62C132.7 434.7 133.38 432.97 134.66 431.75C135.94 430.53 137.59 429.92 139.61 429.92C141.67 429.92 143.3 430.49 144.5 431.63C145.72 432.77 146.33 434.34 146.33 436.34C146.33 438 145.83 439.62 144.83 441.2C143.85 442.76 142.73 444.14 141.47 445.34C140.21 446.52 138.6 447.9 136.64 449.48H146.96V451.76H132.53V449.81ZM150.116 440.93C150.116 437.49 150.676 434.81 151.796 432.89C152.916 430.95 154.876 429.98 157.676 429.98C160.456 429.98 162.406 430.95 163.526 432.89C164.646 434.81 165.206 437.49 165.206 440.93C165.206 444.43 164.646 447.15 163.526 449.09C162.406 451.03 160.456 452 157.676 452C154.876 452 152.916 451.03 151.796 449.09C150.676 447.15 150.116 444.43 150.116 440.93ZM162.506 440.93C162.506 439.19 162.386 437.72 162.146 436.52C161.926 435.3 161.456 434.32 160.736 433.58C160.036 432.84 159.016 432.47 157.676 432.47C156.316 432.47 155.276 432.84 154.556 433.58C153.856 434.32 153.386 435.3 153.146 436.52C152.926 437.72 152.816 439.19 152.816 440.93C152.816 442.73 152.926 444.24 153.146 445.46C153.386 446.68 153.856 447.66 154.556 448.4C155.276 449.14 156.316 449.51 157.676 449.51C159.016 449.51 160.036 449.14 160.736 448.4C161.456 447.66 161.926 446.68 162.146 445.46C162.386 444.24 162.506 442.73 162.506 440.93Z" fill="white"/>
<path d="M240.53 449.81C243.07 447.77 245.06 446.1 246.5 444.8C247.94 443.48 249.15 442.11 250.13 440.69C251.13 439.25 251.63 437.84 251.63 436.46C251.63 435.16 251.31 434.14 250.67 433.4C250.05 432.64 249.04 432.26 247.64 432.26C246.28 432.26 245.22 432.69 244.46 433.55C243.72 434.39 243.32 435.52 243.26 436.94H240.62C240.7 434.7 241.38 432.97 242.66 431.75C243.94 430.53 245.59 429.92 247.61 429.92C249.67 429.92 251.3 430.49 252.5 431.63C253.72 432.77 254.33 434.34 254.33 436.34C254.33 438 253.83 439.62 252.83 441.2C251.85 442.76 250.73 444.14 249.47 445.34C248.21 446.52 246.6 447.9 244.64 449.48H254.96V451.76H240.53V449.81ZM257.396 432.8V430.31H263.036V452H260.276V432.8H257.396Z" fill="white"/>
<path d="M339.53 449.81C342.07 447.77 344.06 446.1 345.5 444.8C346.94 443.48 348.15 442.11 349.13 440.69C350.13 439.25 350.63 437.84 350.63 436.46C350.63 435.16 350.31 434.14 349.67 433.4C349.05 432.64 348.04 432.26 346.64 432.26C345.28 432.26 344.22 432.69 343.46 433.55C342.72 434.39 342.32 435.52 342.26 436.94H339.62C339.7 434.7 340.38 432.97 341.66 431.75C342.94 430.53 344.59 429.92 346.61 429.92C348.67 429.92 350.3 430.49 351.5 431.63C352.72 432.77 353.33 434.34 353.33 436.34C353.33 438 352.83 439.62 351.83 441.2C350.85 442.76 349.73 444.14 348.47 445.34C347.21 446.52 345.6 447.9 343.64 449.48H353.96V451.76H339.53V449.81ZM356.786 449.81C359.326 447.77 361.316 446.1 362.756 444.8C364.196 443.48 365.406 442.11 366.386 440.69C367.386 439.25 367.886 437.84 367.886 436.46C367.886 435.16 367.566 434.14 366.926 433.4C366.306 432.64 365.296 432.26 363.896 432.26C362.536 432.26 361.476 432.69 360.716 433.55C359.976 434.39 359.576 435.52 359.516 436.94H356.876C356.956 434.7 357.636 432.97 358.916 431.75C360.196 430.53 361.846 429.92 363.866 429.92C365.926 429.92 367.556 430.49 368.756 431.63C369.976 432.77 370.586 434.34 370.586 436.34C370.586 438 370.086 439.62 369.086 441.2C368.106 442.76 366.986 444.14 365.726 445.34C364.466 446.52 362.856 447.9 360.896 449.48H371.216V451.76H356.786V449.81Z" fill="white"/>
<path d="M432.53 449.81C435.07 447.77 437.06 446.1 438.5 444.8C439.94 443.48 441.15 442.11 442.13 440.69C443.13 439.25 443.63 437.84 443.63 436.46C443.63 435.16 443.31 434.14 442.67 433.4C442.05 432.64 441.04 432.26 439.64 432.26C438.28 432.26 437.22 432.69 436.46 433.55C435.72 434.39 435.32 435.52 435.26 436.94H432.62C432.7 434.7 433.38 432.97 434.66 431.75C435.94 430.53 437.59 429.92 439.61 429.92C441.67 429.92 443.3 430.49 444.5 431.63C445.72 432.77 446.33 434.34 446.33 436.34C446.33 438 445.83 439.62 444.83 441.2C443.85 442.76 442.73 444.14 441.47 445.34C440.21 446.52 438.6 447.9 436.64 449.48H446.96V451.76H432.53V449.81ZM450.056 435.77C450.196 433.93 450.906 432.49 452.186 431.45C453.466 430.41 455.126 429.89 457.166 429.89C458.526 429.89 459.696 430.14 460.676 430.64C461.676 431.12 462.426 431.78 462.926 432.62C463.446 433.46 463.706 434.41 463.706 435.47C463.706 436.71 463.346 437.78 462.626 438.68C461.926 439.58 461.006 440.16 459.866 440.42V440.57C461.166 440.89 462.196 441.52 462.956 442.46C463.716 443.4 464.096 444.63 464.096 446.15C464.096 447.29 463.836 448.32 463.316 449.24C462.796 450.14 462.016 450.85 460.976 451.37C459.936 451.89 458.686 452.15 457.226 452.15C455.106 452.15 453.366 451.6 452.006 450.5C450.646 449.38 449.886 447.8 449.726 445.76H452.366C452.506 446.96 452.996 447.94 453.836 448.7C454.676 449.46 455.796 449.84 457.196 449.84C458.596 449.84 459.656 449.48 460.376 448.76C461.116 448.02 461.486 447.07 461.486 445.91C461.486 444.41 460.986 443.33 459.986 442.67C458.986 442.01 457.476 441.68 455.456 441.68H454.766V439.4H455.486C457.326 439.38 458.716 439.08 459.656 438.5C460.596 437.9 461.066 436.98 461.066 435.74C461.066 434.68 460.716 433.83 460.016 433.19C459.336 432.55 458.356 432.23 457.076 432.23C455.836 432.23 454.836 432.55 454.076 433.19C453.316 433.83 452.866 434.69 452.726 435.77H450.056Z" fill="white"/>
<path d="M632.53 449.81C635.07 447.77 637.06 446.1 638.5 444.8C639.94 443.48 641.15 442.11 642.13 440.69C643.13 439.25 643.63 437.84 643.63 436.46C643.63 435.16 643.31 434.14 642.67 433.4C642.05 432.64 641.04 432.26 639.64 432.26C638.28 432.26 637.22 432.69 636.46 433.55C635.72 434.39 635.32 435.52 635.26 436.94H632.62C632.7 434.7 633.38 432.97 634.66 431.75C635.94 430.53 637.59 429.92 639.61 429.92C641.67 429.92 643.3 430.49 644.5 431.63C645.72 432.77 646.33 434.34 646.33 436.34C646.33 438 645.83 439.62 644.83 441.2C643.85 442.76 642.73 444.14 641.47 445.34C640.21 446.52 638.6 447.9 636.64 449.48H646.96V451.76H632.53V449.81ZM663.946 432.68H653.416V439.52C653.876 438.88 654.556 438.36 655.456 437.96C656.356 437.54 657.326 437.33 658.366 437.33C660.026 437.33 661.376 437.68 662.416 438.38C663.456 439.06 664.196 439.95 664.636 441.05C665.096 442.13 665.326 443.28 665.326 444.5C665.326 445.94 665.056 447.23 664.516 448.37C663.976 449.51 663.146 450.41 662.026 451.07C660.926 451.73 659.556 452.06 657.916 452.06C655.816 452.06 654.116 451.52 652.816 450.44C651.516 449.36 650.726 447.92 650.446 446.12H653.116C653.376 447.26 653.926 448.15 654.766 448.79C655.606 449.43 656.666 449.75 657.946 449.75C659.526 449.75 660.716 449.28 661.516 448.34C662.316 447.38 662.716 446.12 662.716 444.56C662.716 443 662.316 441.8 661.516 440.96C660.716 440.1 659.536 439.67 657.976 439.67C656.916 439.67 655.986 439.93 655.186 440.45C654.406 440.95 653.836 441.64 653.476 442.52H650.896V430.28H663.946V432.68Z" fill="black"/>
<path d="M532.53 449.81C535.07 447.77 537.06 446.1 538.5 444.8C539.94 443.48 541.15 442.11 542.13 440.69C543.13 439.25 543.63 437.84 543.63 436.46C543.63 435.16 543.31 434.14 542.67 433.4C542.05 432.64 541.04 432.26 539.64 432.26C538.28 432.26 537.22 432.69 536.46 433.55C535.72 434.39 535.32 435.52 535.26 436.94H532.62C532.7 434.7 533.38 432.97 534.66 431.75C535.94 430.53 537.59 429.92 539.61 429.92C541.67 429.92 543.3 430.49 544.5 431.63C545.72 432.77 546.33 434.34 546.33 436.34C546.33 438 545.83 439.62 544.83 441.2C543.85 442.76 542.73 444.14 541.47 445.34C540.21 446.52 538.6 447.9 536.64 449.48H546.96V451.76H532.53V449.81ZM549.456 447.17V445.1L559.986 430.52H563.256V444.8H566.256V447.17H563.256V452H560.556V447.17H549.456ZM560.676 433.37L552.606 444.8H560.676V433.37Z" fill="black"/>
</g>
<defs>
<clipPath id="clip0_43_174">
<rect width="700" height="599" fill="white"/>
</clipPath>
</defs>
</svg>
